<?xml version="1.0" encoding="UTF-8"?>
<svg id="Layer_2" data-name="Layer 2" xmlns="http://www.w3.org/2000/svg" viewBox="0 0 400.77 461.11">
  <defs>
    <style>
      .cls-1 {
        fill: #0d131a;
      }

      .cls-1, .cls-2, .cls-3, .cls-4, .cls-5, .cls-6, .cls-7, .cls-8 {
        stroke-width: 0px;
      }

      .cls-2 {
        fill: #cd0047;
      }

      .cls-3 {
        fill: #cf7100;
      }

      .cls-4 {
        fill: #fff;
      }

      .cls-5 {
        fill: #fff697;
      }

      .cls-6 {
        fill: #ef8200;
      }

      .cls-7 {
        fill: #ed8599;
      }

      .cls-8 {
        fill: #007f78;
      }
    </style>
  </defs>
  <g id="katman_1" data-name="katman 1">
    <g>
      <path class="cls-6" d="m364.75,303.95c-1.86,13.69-5.36,26.07-10.52,37.15-5.51,9.9-12.38,18.55-20.63,25.94-21.37,12.22-44.43,18.52-69.19,18.87-28.05.37-49.9-7.34-65.59-23.08,2.15-7.18,3.53-12.37,4.12-15.53.61-3.36.99-6.76,1.14-10.2,8.48,8.82,18.94,15.51,31.37,20.08,14.32,5.28,29.03,6.89,44.12,4.83,16.31-2.22,31.02-8.5,44.12-18.84,14.02-11.14,25.19-26.2,33.52-45.16,3.37,3.69,5.87,5.67,7.53,5.95ZM54.03,170.89c-9.9,23.1-16.77,44.81-20.6,65.15-4.15,4.98-8.37,10.74-12.64,17.31-.23.03-.44.04-.62-.01-1.61-.46-2.41-3.41-2.41-8.85l-.23-2.18-1.61.11c-6.13,1.99-9.92,2.41-11.37,1.26-1.07-.77-1.03-2.72.11-5.86,1.38-3.98,4.14-8.27,8.27-12.87,8.96-16.24,16.35-28.07,22.17-35.5,5.14-6.58,11.46-12.76,18.93-18.56Zm-32.83,61.42c-2.54.27-5.87,1.82-9.98,4.65-.55-.94.32-3.1,2.63-6.49,1.53-2.3,1.95-3.64,1.26-4.02-.61-.46-1.72.34-3.33,2.41-4.83,6.28-6.05,10.11-3.68,11.49,2.07,1.15,5.86.46,11.37-2.07,1.33-.6,2.21-1.15,2.66-1.67.93-.69,1.54-1.44,1.82-2.24.46-1.61-.46-2.3-2.76-2.07Zm13.33,140.16c5.67,1.07,10.84.11,15.51-2.87,4.75-2.99,7.39-7.16,7.93-12.52.31-3.02-.12-6.1-1.25-9.25-6.33-6.01-11.55-13.01-15.65-20.99-4.74,3.92-9.1,9.37-13.09,16.34-4.85,8.33-7.07,15.57-6.67,21.73,3.63,4.07,8.03,6.6,13.22,7.56Zm83.38-29.05c.54-9.64,3.23-19.48,8.07-29.54,2.6-5.36,3.52-8.35,2.76-8.96-.66-.42-1.95.92-3.85,4.03,1.36-16.02-.45-33.97-5.5-53.89,5.74-4.09,11.05-9.09,15.9-15.05,6.51-7.89,11.14-16.2,13.9-24.93,1.84-5.67,2.37-8.69,1.61-9.08-.68-.38-2.06,2.02-4.13,7.18-4.79,6.44-11.6,13.62-20.45,21.54l-21.83,19.88c-1.98,2.39-4.81,6.94-8.49,13.64-.57.19-1.04.25-1.39.15-1.53-.46-2.53-4.06-2.99-10.8-.08-1.23-.31-1.88-.69-1.95-.31-.15-1,.11-2.07.8-2.14,1.38-4.37,2.49-6.66,3.33l-4.25.69c-1.07-1.07-.5-4.21,1.72-9.42,1.84-4.29,2.34-6.55,1.49-6.78-.77-.28-2.07,1.27-3.87,4.59-3.17-.01-5.06-.32-5.66-.92-.61-.61,0-1.68,1.84-3.22l5.06-4.6c1.84-2.07,3.03-4.02,3.56-5.86,2.83-10.8,8.04-22.02,15.62-33.66,6.74-10.42,14.55-19.91,23.44-28.49,3.6-3.45,5.05-5.44,4.37-5.97-.61-.46-2.91.84-6.89,3.91-8.1,6.32-15.52,14.59-22.27,24.79-2.11-3.74-4.26-7.18-6.45-10.31-1.89-2.71-3.72-5.05-5.51-7.05,6.75-1.11,13.1-5.68,19.07-13.74,2.68-3.52,3.83-6.17,3.45-7.93l-5.46.1c.08-.16.1-.31.06-.44-.23-1-2.99-.61-8.27,1.15-7.81,2.6-15.39,4.44-22.75,5.51-7.43,1-12.98,1-16.66,0-8.27-2.37-17.73-11.99-28.38-28.84-10.72-16.93-15.47-29.95-14.25-39.06.87-6.86,5.31-14.13,13.33-21.81.3,2.63,1.22,5.42,2.76,8.37,1.91,3.68,3.71,5.36,5.4,5.05,4.75-.84,8.88-9.54,12.41-26.08,3.6-16.62,2.87-25.24-2.18-25.85-1.42-.19-2.96.55-4.6,2.22-.1-1.13.02-2.21.35-3.25.54-1.68,1.68-3.52,3.45-5.51,6.82-7.74,16.08-13.79,27.8-18.15,11.64-4.29,23.05-5.9,34.24-4.83,25.12,2.53,42.28,18,51.47,46.41,3.83,11.72,5.59,24.13,5.28,37.22-.31,12.79-2.49,24.09-6.55,33.89-5.51,13.25-8.62,24.7-9.31,34.35-.69,8.2-.42,12.37.8,12.52.74.09,1.36-1.21,1.86-3.87,6.28,34.5,9.96,53.87,11.01,58.09,4.83,19.91,12.02,37.91,21.6,54,15.39,25.89,21.56,48.83,18.5,68.82-.33,2.15-1.01,5.18-2.01,9.07-2.94,4.54-7.21,8.11-12.81,10.69-8.43,3.91-18.15,5.02-29.18,3.33-10.95-1.61-19.99-5.36-27.11-11.26-5.09-4.28-8.3-9.03-9.68-14.23Zm-13.41-283.9c1.07.23,2.14-.92,3.22-3.45,1-2.14,2.14-3.94,3.45-5.4,1.07-1.15,2.87-2.68,5.4-4.6,1.61-1.23,2.18-2.11,1.72-2.64-.54-.46-1.95-.11-4.25,1.03-4.67,2.53-7.89,6.05-9.65,10.57-1,2.68-.96,4.17.11,4.48Zm-46.53,52.39c.38.38,1.91-.08,4.6-1.38,1.91-1,2.76-2.03,2.53-3.1-.23-1.15-1.3-1.3-3.22-.46-1.07.54-2.07,1.42-2.99,2.64-.84,1.23-1.15,1.99-.92,2.3Zm-9.31-68.7c-.23,2.53.23,3.83,1.38,3.91,1.15.15,1.84-1.07,2.07-3.68.46-5.51-.61-9.92-3.22-13.21-1-1.38-1.76-1.91-2.3-1.61-.54.31-.46,1.26.23,2.87,1.53,3.45,2.14,7.35,1.84,11.72Zm-16.77,57.67c1.23,3.22,2.14,4.63,2.76,4.25.38-.23.54-1.03.46-2.41l-.57-3.45c-.77-1.84-1.57-2.49-2.41-1.95-.84.61-.92,1.8-.23,3.56Zm88.23,16.54c-.38-.54-1.46.11-3.22,1.95l-3.68,3.22c-1.15.61-2.72.96-4.71,1.03l-34.81-1.61c-18.69-1.46-29.87-2.83-33.55-4.14-2.3-.84-6.2-3.33-11.72-7.47-5.59-4.21-9.61-7.7-12.06-10.45-1.38-1.61-2.07-3.64-2.07-6.09.08-2.99-.19-4.52-.8-4.6-.54,0-1.07,1.46-1.61,4.37-.23,1.23-.15,2.64.23,4.25.38,1.53.92,2.76,1.61,3.68.5.64,1.17,1.37,1.97,2.17.06,1.66.59,3.92,1.6,6.79,1.15,3.22,2.14,4.98,2.99,5.28l2.07-.66c3.21,8.39,7.83,16.46,13.9,24.22,6.05,7.81,11.07,12.25,15.05,13.33,7.58,2.07,18.11.27,31.59-5.4,13.5-5.71,23.76-12.87,30.8-21.45.49-.17.95-.37,1.37-.6,1.46-.84,2.72-2.14,3.79-3.91,1.3-2.14,1.72-3.45,1.26-3.91Zm17.12-42.74c0-15.85-4.02-24.16-12.06-24.93-7.58-.77-14.09,5.02-19.53,17.35-5.28,12.1-6.89,24.24-4.83,36.42.46,2.68,5.55,3.87,15.28,3.56,9.73-.31,15.24-1.65,16.54-4.02,3.06-5.44,4.6-14.9,4.6-28.38Zm-77.53,91.79c-1.47,3.34-2.86,6.65-4.2,9.93.73-.75,1.46-1.46,2.23-2.12,1.8-1.53,3.61-2.71,5.43-3.57-.92-1.22-1.77-2.64-2.55-4.25-.3,0-.62,0-.91,0Zm-19.01,227.18c-.33-.13-.65-.25-1-.4-1.96-.82-3.81-1.79-5.57-2.87-1.92.77-4.22,1.87-6.95,3.33-1.84,1.03-3.43,1.99-4.77,2.86.79.59,1.53,1.48,2.24,2.65.73,1.21,1.29,2.55,1.71,3.98,2.59-2.06,4.89-3.24,6.91-3.52,2.07-.31,3.91.69,5.51,2.99,1.08,1.47,1.82,3.13,2.24,4.97,2.89-2.62,5.32-4.01,7.29-4.17,1.03-.11,2.07.21,3.13.94-1.77-3.29-5.35-6.88-10.75-10.77Zm126.41,12.12c-12.62.56-20.96,3.87-25.04,9.92.01,1.14.01,2.31,0,3.52-.06,7.78.26,12.91.97,15.4.68-.82,1.58-1.55,2.71-2.18,1.99-1.07,3.87-1.38,5.63-.92,2.53.61,4.52,2.18,5.97,4.71,1.3,2.22,1.84,4.56,1.61,7.01-.01.09-.04.2-.06.3,2.02.39,4.08.64,6.17.76-.44-1.48-.65-2.83-.6-4.05.15-2.07.8-3.94,1.95-5.63,1.3-1.91,2.99-3.06,5.05-3.45,1.91-.38,3.71-.11,5.4.8,1.76.92,3.1,2.34,4.02,4.25.69,1.49,1.09,3.55,1.22,6.12,1.92-.62,3.69-1.37,5.27-2.27-.03-.14-.05-.27-.06-.41-.23-2.99.77-6.09,2.99-9.31,2.3-3.45,4.71-4.94,7.24-4.48.03,0,.05.02.08.03.01-.05.03-.09.04-.14.48-2.21-.29-6.05-2.29-11.49-5.18-6.27-14.6-9.11-28.27-8.5Z"/>
      <path class="cls-7" d="m108.95,126.59c-4.98,5.19-11.2,9.74-18.68,13.64-2.85,1.49-5.88,2.88-9.09,4.18-.54.22-1.07.42-1.6.62l-2.65-2.92c-1.23-1.15-2.14-1.65-2.76-1.49-.77.15-1.61,1.34-2.53,3.56-.58,1.5-.93,2.78-1.08,3.84-7.44,2.01-13.55,2.38-18.34,1.1-3.37-.92-7.85-4.98-13.44-12.18-.37-.48-.73-.97-1.09-1.46.3-.83.55-1.91.74-3.25.38-2.14.34-3.45-.11-3.91-.3-.3-.89-.48-1.74-.56-.45-.04-.98-.05-1.59-.02l-.12.02c1.68-1.09,3.51-2.1,5.52-3.01,2.72-1.16,5.3-1.94,7.76-2.36,5.87.84,14.06,1.65,24.59,2.42.54,1.47,1.46,3.09,2.8,4.88,1.53,2.14,2.76,3.22,3.68,3.22,1.07,0,2.76-.88,5.05-2.64l4.43-4.64,20.25.95Z"/>
      <path class="cls-2" d="m41.19,121.15c-3.14,1.11-6.3,2.9-9.48,5.35-2.52-4.3-4.61-8.66-6.25-13.09l1.05-.73c5.88,4.4,10.06,7.02,12.51,7.84.59.21,1.32.42,2.18.63Zm350.87,131.03c-1.76,3.45-2.99,5.13-3.68,5.06-.69,0-.88-1.76-.57-5.28l.92-7.12.57-6.89c-2.3,1.84-3.79,2.6-4.48,2.3-.61-.31-.8-1.65-.57-4.02l1.84-13.21v-3.56c-.23-.46-1.03-.15-2.41.92-3.75,3.14-5.9,4.48-6.43,4.02-.46-.38-.46-2.8,0-7.24.92-9.5-1.07-15.39-5.97-17.69-2.07-.92-3.18-2.34-3.33-4.25-.15-1.46.31-4.67,1.38-9.65,1.23-5.9,1.84-10.34,1.84-13.33,0-3.14-.61-7.12-1.84-11.95-.61,4.21-1.34,7.43-2.18,9.65-.84,2.22-1.99,3.94-3.45,5.17-5.67,4.9-9.57,9.08-11.72,12.52-1.84,2.99-2.64,6.09-2.41,9.31.31,3.06.27,5.4-.11,7.01l-2.07,4.48-1.95,3.1c-.19.35-.35.74-.5,1.14,1.16,1.8,3.23,3.98,6.24,6.55.92.77,1.26,2.34,1.03,4.71-.23,2.37-.08,3.79.46,4.25,1.23,1.07,1.99,2.26,2.3,3.56l.23,4.14c0,1.84,1.46,3.22,4.37,4.14,3.75,1.15,3.91,3.71.46,7.7-1.38,1.46-2.37,3.29-2.99,5.51-.46,1.84-.57,3.45-.34,4.83l6.55-3.91c1.91-1.53,2.99-2.26,3.22-2.18.38.08.65,1.34.8,3.79l-.69,7.12c-.31,2.68.19,4.67,1.49,5.97,2.53,2.53,4.02,4.98,4.48,7.35.69,2.99-.11,6.47-2.41,10.45-.69,1.3-1.15,2.99-1.38,5.06-.27,2.31-.19,4.65.2,7.02.83-.49,1.68-1.17,2.56-2.08,2.07-2.22,4.33-3.94,6.78-5.17,1.84-.84,3.33-2.76,4.48-5.74,1.15-3.06,2.3-4.9,3.45-5.51,2.99-1.68,5.13-3.26,6.43-4.71,1.84-2.07,2.6-4.48,2.3-7.24-.23-1.68.15-4.29,1.15-7.81s1.42-6.13,1.26-7.81v-6.43c.23-2.45.57-4.4,1.03-5.86l-2.76,5.4-3.56,6.43Z"/>
      <path class="cls-5" d="m115.75,257.48c5.36,21.24,7.1,40.8,5.23,58.67-2,4.09-3.62,8.14-4.87,12.16-3.3,10.6-4.01,20.91-2.08,30.94.72,3.71,1.79,7.32,3.2,10.84-41.77-5.98-67.76-26.17-77.97-60.57-1.79-6.04-3.11-12.51-3.93-19.43-3.61-30.05,1.6-64.05,15.63-102.02,2.54-4.18,5.52-7.67,8.96-10.45,2.21-1.79,4.26-3.06,6.17-3.85,1.53-.64,2.96-.97,4.29-.97,2.32,0,5.03,1.54,8.13,4.6,2.42,2.39,5.07,5.72,7.95,9.99,2.4,3.56,4.75,7.47,7.05,11.72-6.83,11.12-11.83,22.53-14.98,34.23-.31,1.38-1.11,2.72-2.41,4.02l-5.63,4.83c-4.37,3.6-5.25,6.28-2.64,8.04,1.68,1.08,4.29,1.68,7.8,1.81-.86,2.1-1.43,4.21-1.72,6.35-.38,2.99-.08,4.9.92,5.74l4.94.23c2.83-.61,5.74-1.99,8.73-4.14-.08,2.76.34,5.4,1.26,7.93.92,2.53,1.99,3.98,3.22,4.37,2.22.69,6.05-1.19,11.49-5.63,5.59-5.05,9.11-8.04,10.57-8.96.23-.14.46-.3.68-.44Zm218.05,112.96c-2.2,1.95-4.49,3.82-6.88,5.59-14.17,10.57-30.64,17.31-49.4,20.22-17.08,2.68-33.51,1.88-49.29-2.41-14.54-3.87-25.66-9.91-33.36-18.13-.76,2.52-1.42,4.93-1.97,7.21,9.08,8.54,22.11,14.29,39.13,17.23,18.31,3.22,36.53,2.3,54.69-2.76,18.67-5.19,34.38-14.2,47.13-26.98-.01,0-.03.02-.04.03Zm34.94-78.74c.23-2.07.69-3.75,1.38-5.06,2.3-3.98,3.1-7.47,2.41-10.45-.46-2.37-1.95-4.83-4.48-7.35-1.3-1.3-1.8-3.29-1.49-5.97l.69-7.12c-.15-2.45-.42-3.71-.8-3.79-.23-.08-1.3.65-3.22,2.18l-6.55,3.91c-.23-1.38-.11-2.99.34-4.83.61-2.22,1.61-4.06,2.99-5.51,3.45-3.98,3.29-6.55-.46-7.7-2.91-.92-4.37-2.3-4.37-4.14l-.23-4.14c-.31-1.3-1.07-2.49-2.3-3.56-.54-.46-.69-1.88-.46-4.25.23-2.37-.11-3.94-1.03-4.71-3.01-2.57-5.08-4.75-6.24-6.55-.35.93-.6,2-.76,3.22-.38,2.6-.8,3.94-1.26,4.02-.38.08-1.3-1-2.76-3.22-1.53-2.22-1.72-5.71-.57-10.45.61-2.3.42-4.79-.57-7.47-1-2.6-1.23-4.71-.69-6.32-1.07,1-1.88,2.8-2.41,5.4-.54,2.83-.34,5.28.57,7.35.84,1.84,1,4.14.46,6.89l-1.38,4.14c-1,1.91-1.49,3.64-1.49,5.17l.92,4.14c.92,2.91,1.11,5.13.57,6.66-2.22,5.28-3.33,8.96-3.33,11.03,0,1.68.8,3.75,2.41,6.2,1.61,2.37,2.34,4.56,2.18,6.55l-1.95,6.09-2.3,4.48c-.69,1.68-1.07,3.48-1.15,5.4-.15,3.14.73,6.2,2.64,9.19,1.91,3.22,4.25,5.13,7.01,5.74l10.8,3.1c2.99,1.23,5.55,3.06,7.7,5.51,2.3,2.45,4.29,3.79,5.97,4.02,1.08.18,2.22-.09,3.42-.79-.39-2.37-.47-4.71-.2-7.02Z"/>
      <path class="cls-8" d="m130.57,83.52c1.33,1.7,2.28,3.72,2.87,6.04-.6,4.14-1.57,8.04-2.98,11.65-1,1.53-5.48,2.49-13.44,2.87-2.21.11-4.14.14-5.8.11-2.35-5.15-3.02-12.85-2.02-23.09.04-.46.1-.9.15-1.35,1.08-1.1,2.22-1.73,3.41-1.87-.69,5.51-.54,10,.46,13.44,1.07,3.45,2.95,5.36,5.63,5.74,2.07.31,4.17-.61,6.32-2.76,2.53-2.45,4.33-6.05,5.4-10.8Zm-98.23-1.03c2.68-.72,5.39-6.48,8.13-17.25-.16-.38-.34-.75-.54-1.13-.61,3.14-1.68,5.59-3.22,7.35-1.38,1.61-2.68,2.18-3.91,1.72-1.46-.46-2.34-2.14-2.64-5.05-.31-3.29.23-7.08,1.61-11.37l-1.96,1.13c-1.9,5.24-2.87,9.63-2.87,13.12v.11c0,2.76.73,5.44,2.18,8.04,1.3,2.45,2.37,3.56,3.22,3.33Z"/>
      <path class="cls-1" d="m125.17,49.75c-7.58-.77-14.09,5.02-19.53,17.35-5.28,12.1-6.89,24.24-4.83,36.42.46,2.68,5.55,3.87,15.28,3.56,9.73-.31,15.24-1.65,16.54-4.02,3.06-5.44,4.6-14.9,4.6-28.38,0-15.85-4.02-24.16-12.06-24.93Zm-8.16,18.15c.77-4.6,2.11-8.16,4.02-10.68,1.68-2.3,3.45-3.29,5.28-2.99,1.76.31,3.1,1.95,4.02,4.94.84,3.06,1,6.74.46,11.03-.69,5.13-2.11,9.04-4.25,11.72-1.76,2.14-3.45,3.06-5.05,2.76-1.84-.46-3.22-2.49-4.14-6.09-.77-3.37-.88-6.93-.34-10.68Zm-13.1,34.7c-1.21-10.85-.09-20.86,3.33-30.03-.47,2.27-.85,4.69-1.15,7.28-1.16,10.09-.52,18.15,1.9,24.17-2.29-.24-3.65-.72-4.08-1.42Zm26.54-1.38c-1,1.53-5.48,2.49-13.44,2.87-2.21.11-4.14.14-5.8.11-2.35-5.15-3.02-12.85-2.02-23.09.04-.46.1-.9.15-1.35,1.08-1.1,2.22-1.73,3.41-1.87-.69,5.51-.54,10,.46,13.44,1.07,3.45,2.95,5.36,5.63,5.74,2.07.31,4.17-.61,6.32-2.76,2.53-2.45,4.33-6.05,5.4-10.8,1.33,1.7,2.28,3.72,2.87,6.04-.6,4.14-1.57,8.04-2.98,11.65Zm-98.57-.34c-.69-1.76-.61-2.95.23-3.56.84-.54,1.65.11,2.41,1.95l.57,3.45c.08,1.38-.08,2.18-.46,2.41-.61.38-1.53-1.03-2.76-4.25Zm26.08,11.03c-.23-.31.08-1.07.92-2.3.92-1.23,1.91-2.11,2.99-2.64,1.91-.84,2.99-.69,3.22.46.23,1.07-.61,2.11-2.53,3.1-2.68,1.3-4.21,1.76-4.6,1.38Zm46.41-56.87c1.76-4.52,4.98-8.04,9.65-10.57,2.3-1.15,3.71-1.49,4.25-1.03.46.54-.11,1.42-1.72,2.64-2.53,1.91-4.33,3.45-5.4,4.6-1.3,1.46-2.45,3.26-3.45,5.4-1.07,2.53-2.14,3.68-3.22,3.45-1.07-.31-1.11-1.8-.11-4.48Zm-57.56-23.55c-.69-1.61-.77-2.57-.23-2.87.54-.31,1.3.23,2.3,1.61,2.6,3.29,3.68,7.7,3.22,13.21-.23,2.6-.92,3.83-2.07,3.68-1.15-.08-1.61-1.38-1.38-3.91.31-4.37-.31-8.27-1.84-11.72Zm70.08,87.89l-3.68,3.22c-1.15.61-2.72.96-4.71,1.03l-34.81-1.61c-18.69-1.46-29.87-2.83-33.55-4.14-2.3-.84-6.2-3.33-11.72-7.47-5.59-4.21-9.61-7.7-12.06-10.45-1.38-1.61-2.07-3.64-2.07-6.09.08-2.99-.19-4.52-.8-4.6-.54,0-1.07,1.46-1.61,4.37-.23,1.23-.15,2.64.23,4.25.38,1.53.92,2.76,1.61,3.68.5.64,1.17,1.37,1.97,2.17.06,1.66.59,3.92,1.6,6.79,1.15,3.22,2.14,4.98,2.99,5.28l2.07-.66c3.21,8.39,7.83,16.46,13.9,24.22,6.05,7.81,11.07,12.25,15.05,13.33,7.58,2.07,18.11.27,31.59-5.4,13.5-5.71,23.76-12.87,30.8-21.45.49-.17.95-.37,1.37-.6,1.46-.84,2.72-2.14,3.79-3.91,1.3-2.14,1.72-3.45,1.26-3.91-.38-.54-1.46.11-3.22,1.95Zm-31.9,6.1l-2.11,2.52c-1.76,1.61-2.95,2.37-3.56,2.3-.38,0-1.03-.84-1.95-2.53l-1.11-2.7,8.73.41Zm-61.85-13.45c-1,.77-1.72,1.11-2.18,1.03-.38-.08-.84-1.53-1.38-4.37-.13-.62-.24-1.2-.34-1.72,1.42,1.21,3.06,2.53,4.93,3.97l-1.03,1.09Zm2.3,1.4l1.05-.73c5.88,4.4,10.06,7.02,12.51,7.84.59.21,1.32.42,2.18.63-3.14,1.11-6.3,2.9-9.48,5.35-2.52-4.3-4.61-8.66-6.25-13.09Zm11.03,18.25l-.56,1.39c-.7-1-1.38-2-2.03-3.01,1.57-.52,2.52-.64,2.83-.33l-.23,1.95Zm36.77,15.58l.22-1.79c.38-1.53.77-2.34,1.15-2.41.57-.13,1.54.81,2.89,2.77-1.46.53-2.88,1.01-4.26,1.43Zm17.02-7.01c-2.85,1.49-5.88,2.88-9.09,4.18-.54.22-1.07.42-1.6.62l-2.65-2.92c-1.23-1.15-2.14-1.65-2.76-1.49-.77.15-1.61,1.34-2.53,3.56-.58,1.5-.93,2.78-1.08,3.84-7.44,2.01-13.55,2.38-18.34,1.1-3.37-.92-7.85-4.98-13.44-12.18-.37-.48-.73-.97-1.09-1.46.3-.83.55-1.91.74-3.25.38-2.14.34-3.45-.11-3.91-.3-.3-.89-.48-1.74-.56-.45-.04-.98-.05-1.59-.02l-.12.02c1.68-1.09,3.51-2.1,5.52-3.01,2.72-1.16,5.3-1.94,7.76-2.36,5.87.84,14.06,1.65,24.59,2.42.54,1.47,1.46,3.09,2.8,4.88,1.53,2.14,2.76,3.22,3.68,3.22,1.07,0,2.76-.88,5.05-2.64l4.43-4.64,20.25.95c-4.98,5.19-11.2,9.74-18.68,13.64ZM22.46,235.63c.09.31-.02.63-.32.98-.45.51-1.33,1.07-2.66,1.67-5.51,2.53-9.31,3.22-11.37,2.07-2.37-1.38-1.15-5.21,3.68-11.49,1.61-2.07,2.72-2.87,3.33-2.41.69.38.27,1.72-1.26,4.02-2.31,3.39-3.17,5.54-2.63,6.49.03.06.05.13.1.18.77.69,3.18.34,7.24-1.03,2.3-1,3.6-1.15,3.91-.46Zm377.98,16.31c-.54-1.84-.73-4.21-.57-7.12l.46-6.43c-.08-3.6-.42-5.4-1.03-5.4-.46.08-1.3,1.68-2.53,4.83l-2.3,4.48-3.56,5.05c1.15-6.97,1.3-11.18.46-12.64-.61-1.15-2.11-.73-4.48,1.26,2.14-11.34,2.64-18.04,1.49-20.11-1-1.99-3.94-.54-8.85,4.37,1.38-6.51,1.61-11.53.69-15.05-.92-4.06-3.45-7.01-7.58-8.85-1.99-.92-2.37-3.56-1.15-7.93,1.84-6.89,2.8-11.37,2.87-13.44l-.57-7.47c-.46-3.06-1.07-5.63-1.84-7.7-2.07-5.67-3.41-8.42-4.02-8.27-.46.08-1,2.83-1.61,8.27-.54,6.05-1.88,10.38-4.02,12.98-5.44,4.44-9.11,7.74-11.03,9.88-3.22,3.45-4.83,8.08-4.83,13.9l.46,4.94c.08,1.84-.38,3.64-1.38,5.4l-3.68,7.12c-.92-2.3-1.03-4.44-.34-6.43,1.07-3.37,1.15-6.28.23-8.73-.84-2.14-1.3-4.17-1.38-6.09l.11-3.22c-.08-2.14-.31-3.26-.69-3.33-.31-.08-1.03.77-2.18,2.53-1.91,2.91-3.14,5.09-3.68,6.55-.92,2.76-.96,6.01-.11,9.77.46,2.14.54,4.02.23,5.63l-1.61,3.91c-1.23,2.37-1.88,4.21-1.95,5.51,0,1.46.57,3.37,1.72,5.74,1,1.99,1.03,4.06.11,6.2-3.29,8.35-4.17,13.98-2.64,16.89l2.3,2.87c1,1.15,1.53,2.41,1.61,3.79.08,1.07-1,3.68-3.22,7.81-2.22,4.21-3.22,7.51-2.99,9.88.23,3.45,1.46,6.78,3.68,10,2.37,3.45,5.09,5.36,8.16,5.74,6.18.76,11.28,2.89,15.33,6.34-7.63,17.94-18.09,32.33-31.42,43.17-12.41,10.11-26.27,16.43-41.59,18.96-14.71,2.37-29.07.96-43.08-4.25-13.45-4.92-24.91-12.7-34.4-23.35-.85-16.76-7.07-34.48-18.68-53.17-9.65-15.55-17.27-34.39-22.86-56.52-4.06-15.73-8.34-39.42-12.83-71.02.63-2.72,1.5-5.74,2.6-9.05.77-2.45,2.87-8.2,6.32-17.23,4.21-11.03,6.43-23.25,6.66-36.65.31-13.79-1.57-26.69-5.63-38.72C149.83,18.76,131.41,3.03,104.38.34c-11.79-1.15-23.74.57-35.84,5.17-12.02,4.52-21.71,10.91-29.07,19.19-3.94,4.37-5.16,9.17-3.68,14.4-1.56,2.27-3.2,5.28-4.93,9.04-3.76,8.05-5.89,14.7-6.41,20-4.62,3.46-8.47,7.4-11.52,11.82-3.29,4.6-5.25,9-5.86,13.21-1.3,10.65,3.91,24.89,15.62,42.74,11.34,17.39,21.37,27.3,30.1,29.76.41.11.86.21,1.32.3-7.76,5.9-14.45,12.31-20.05,19.23-7.35,8.96-15.28,21.6-23.78,37.91-4.98,5.74-8.16,10.99-9.54,15.74-1.07,3.68-1,6.17.23,7.47.84.92,2.57,1.34,5.17,1.26,2.76-.08,5.67-.73,8.73-1.95-.08,6.66,1.42,10.42,4.48,11.26,1.76.61,4.56-.84,8.39-4.37,1.4-1.3,2.61-2.56,3.66-3.77-1.95,15.08-2.14,29.36-.55,42.83,1.39,11.66,4.17,22.08,8.33,31.3-5.29,4.17-10.1,9.73-14.41,16.72-5.74,9.27-8.31,17.85-7.7,25.73.38,5.59,2.72,10.99,7.01,16.2,1.93,2.38,4.08,4.48,6.42,6.32-1.76.82-3.82,1.97-6.19,3.44-2.72,1.77-4.99,3.37-6.86,4.84-2.45.82-5.55,2.71-9.33,5.73-5.36,4.21-7.89,7.31-7.58,9.31.15.92,1.95,1.57,5.4,1.95l11.38-.59c-2.05,2.67-2.82,4.56-2.3,5.65.54,1.07,3.29,1.42,8.27,1.03,3.2-.25,6.14-.71,8.87-1.34-1.51,2.29-2.02,3.85-1.52,4.67l13.33-.69c7.02-1.2,11.32-2.61,12.91-4.23,9.22-.98,18.47-3.31,27.76-7.03,8.96-3.52,13.9-6.59,14.82-9.19.92-2.37.84-5.44-.23-9.19-.97-3.27-2.59-6.57-4.82-9.9,1.33-1.89,2.89-3.76,4.71-5.61,2.58-2.58,4.76-4.28,6.54-5.12,4.23.89,8.65,1.61,13.23,2.19,3.9,8.13,9.72,15.74,17.47,22.83,1.88,5.15,2.57,12.34,2.05,21.58-.61,10.57-.04,17.16,1.72,19.76.34.49.76.95,1.2,1.41-.34,2.72-.25,6.41.3,11.12.84,6.74,2.11,10.15,3.79,10.22,1.38.15,3.91-2.14,7.58-6.89,2.26-2.92,3.88-5.37,4.86-7.36,2.74.49,5.54.77,8.39.85.91,1.95,2.14,4.08,3.75,6.4,3.75,5.44,6.63,7.89,8.62,7.35,1.46-.38,2.53-3.87,3.22-10.45.18-1.8.29-3.46.33-4.98,2.51-.65,4.79-1.46,6.82-2.46,1.35,1.79,3.52,3.92,6.52,6.4,5.13,4.21,8.2,6.05,9.19,5.51,1.53-.77,1.42-5.63-.34-14.59-1.03-5.34-2.24-9.21-3.61-11.64.21-.84.38-1.71.51-2.61.54-3.91-1.03-9.88-4.71-17.92-2.77-5.95-4.66-10.5-5.68-13.67.18-2,.5-4.17.93-6.46,9.63,8.69,23.04,14.37,40.25,17.03,18.84,2.91,37.64,1.53,56.41-4.14,20.91-6.43,38.18-17.31,51.81-32.63,15.47-17.44,24.85-39.28,28.16-65.51,1.46-.87,3.14-2.28,5.05-4.23,1.53-1.68,3.75-3.14,6.66-4.37,1.46-.61,2.76-1.88,3.91-3.79l2.07-4.6c.77-1.69,3.48-4.29,8.16-7.81,3.37-2.6,4.56-5.63,3.56-9.08-.54-1.68-.04-4.44,1.49-8.27,1.46-3.75,1.84-6.7,1.15-8.85ZM36.14,50.09c1.07-3.91,2.3-6.97,3.68-9.19,1.23-1.99,2.3-2.95,3.22-2.87.61.08,1,1.65,1.15,4.71.04,1.73-.03,3.4-.19,5.03-.15,1.19-.35,2.49-.59,3.88-.98,4.39-2.13,7.75-3.47,10.05-1.23,2.07-2.37,2.99-3.45,2.76-.92-.23-1.49-1.42-1.72-3.56-.31-2.68.15-6.28,1.38-10.8Zm-9.19,20.91c0-3.49.97-7.88,2.87-13.12l1.96-1.13c-1.38,4.29-1.91,8.08-1.61,11.37.31,2.91,1.19,4.6,2.64,5.05,1.23.46,2.53-.11,3.91-1.72,1.53-1.76,2.6-4.21,3.22-7.35.21.38.39.75.54,1.13-2.74,10.77-5.45,16.53-8.13,17.25-.84.23-1.91-.88-3.22-3.33-1.46-2.6-2.18-5.28-2.18-8.04v-.11Zm5.31,171.84c-1.79,2.42-3.79,4.65-6,6.69-2.45,2.39-4.27,3.64-5.47,3.8-.23.03-.44.04-.62-.01-1.61-.46-2.41-3.41-2.41-8.85l-.23-2.18-1.61.11c-6.13,1.99-9.92,2.41-11.37,1.26-1.07-.77-1.03-2.72.11-5.86,1.38-3.98,4.14-8.27,8.27-12.87,8.96-16.24,16.35-28.07,22.17-35.5,5.14-6.58,11.46-12.76,18.93-18.56-9.9,23.1-16.77,44.81-20.6,65.15-.43,2.29-.82,4.56-1.18,6.81Zm-21.28,167.53c-3.25.07-5.14-.21-5.71-.83-.06-.07-.12-.13-.15-.21-.31-1,1.46-2.91,5.28-5.74,3.91-2.99,7.01-4.44,9.31-4.37.61,0,1.42.77,2.41,2.3l.6,1.6.93,2.47c-.83.79-1.68,1.64-2.56,2.59-.4.42-.78.82-1.14,1.22l-8.97.96Zm14.94,5.63c-2.83.45-4.78.6-5.87.47-.59-.07-.94-.22-1.02-.47-.21-.58.61-1.83,2.4-3.73.12-.05.21-.14.27-.28.78-.81,1.72-1.73,2.85-2.77,4.06-3.83,7.12-5.9,9.19-6.2,1.15-.15,2.26.65,3.33,2.41.28.52.51,1.06.71,1.6.37.99.6,2.03.7,3.11-.61.64-1.23,1.33-1.88,2.06-.56.64-1.09,1.26-1.57,1.85l-9.11,1.95Zm27.8-.57c-.38,1.15-3.64,2.37-9.77,3.68l-7.86.86-1.56.17c-.31-.77,1.46-3.06,5.28-6.89,3.98-4.06,6.93-6.17,8.85-6.32,1.38-.08,2.68,1,3.91,3.22.06.1.1.2.16.3,1.09,2.08,1.43,3.74.99,4.98Zm41.01-40.33c-3.22,3.68-5.44,7.58-6.66,11.72-1.07,3.83-1.23,5.9-.46,6.2.77.31,1.95-1.38,3.56-5.05.34-.77.73-1.54,1.14-2.3,1.38,2.32,2.42,4.65,3.11,7.01.84,2.91.92,5.05.23,6.43-1.38,2.6-5.86,5.48-13.44,8.62-7.83,3.21-16.04,5.3-24.6,6.32-.26-1.69-1.13-3.6-2.63-5.75-1.2-1.8-2.38-3.08-3.53-3.88-1.06-.73-2.1-1.05-3.13-.94-1.97.16-4.41,1.55-7.29,4.17-.42-1.84-1.16-3.5-2.24-4.97-1.61-2.3-3.45-3.29-5.51-2.99-2.02.28-4.32,1.46-6.91,3.52-.42-1.43-.98-2.77-1.71-3.98-.71-1.18-1.45-2.06-2.24-2.65,1.34-.88,2.93-1.83,4.77-2.86,2.73-1.47,5.03-2.56,6.95-3.33,1.76,1.08,3.61,2.05,5.57,2.87.35.15.67.27,1,.4,4.55,1.81,7.03,2.34,7.39,1.55.46-.77-1.68-2.3-6.43-4.6-5.51-2.6-10.15-6.28-13.9-11.03-3.91-4.83-6.05-9.65-6.43-14.48,0-.07,0-.14,0-.21-.4-6.16,1.83-13.4,6.67-21.73,3.99-6.98,8.35-12.42,13.09-16.34,4.1,7.98,9.31,14.98,15.65,20.99,10.99,10.44,25.35,17.91,43.07,22.42-1.62,1.12-3.31,2.73-5.06,4.87Zm-55.46-65.58c-1.79-6.04-3.11-12.51-3.93-19.43-3.61-30.05,1.6-64.05,15.63-102.02,2.54-4.18,5.52-7.67,8.96-10.45,2.21-1.79,4.26-3.06,6.17-3.85,1.53-.64,2.96-.97,4.29-.97,2.32,0,5.03,1.54,8.13,4.6,2.42,2.39,5.07,5.72,7.95,9.99,2.4,3.56,4.75,7.47,7.05,11.72-6.83,11.12-11.83,22.53-14.98,34.23-.31,1.38-1.11,2.72-2.41,4.02l-5.63,4.83c-4.37,3.6-5.25,6.28-2.64,8.04,1.68,1.08,4.29,1.68,7.8,1.81-.86,2.1-1.43,4.21-1.72,6.35-.38,2.99-.08,4.9.92,5.74l4.94.23c2.83-.61,5.74-1.99,8.73-4.14-.08,2.76.34,5.4,1.26,7.93.92,2.53,1.99,3.98,3.22,4.37,2.22.69,6.05-1.19,11.49-5.63,5.59-5.05,9.11-8.04,10.57-8.96.23-.14.46-.3.68-.44,5.36,21.24,7.1,40.8,5.23,58.67-2,4.09-3.62,8.14-4.87,12.16-3.3,10.6-4.01,20.91-2.08,30.94.72,3.71,1.79,7.32,3.2,10.84-41.77-5.98-67.76-26.17-77.97-60.57Zm116.47,133.37c-.46,2.3-1.99,5.28-4.6,8.96-1.2,1.66-2.2,2.89-3.01,3.72-.94.96-1.63,1.38-2.04,1.22-.77-.31-1.34-2.91-1.72-7.81-.54-5.21-.34-8.96.57-11.26.92-2.45,2.83-3.56,5.74-3.33,1.68.23,3.03,1.26,4.02,3.1.06.1.11.21.16.31.86,1.66,1.16,3.36.87,5.09Zm23.55,6.78c-.46,4.98-1.07,7.58-1.84,7.81-.62.22-1.71-.65-3.27-2.6-.57-.71-1.2-1.56-1.9-2.57-2.91-4.21-4.4-8.16-4.48-11.83-.07-1.35.31-2.58,1.07-3.69.1-.15.19-.3.3-.45.84-1.07,1.8-1.72,2.87-1.95,1.23-.23,2.41-.04,3.56.57,1.23.61,2.11,1.53,2.64,2.76,1.3,2.6,1.65,6.59,1.03,11.95Zm22.29-8.96c1.23,6.13,1.53,9.46.92,10-.14.09-.45.01-.89-.21-.99-.49-2.71-1.75-5.2-3.82-3.83-3.06-5.78-5.48-5.86-7.24-.09-1.39.09-2.77.53-4.13.29-.89.68-1.77,1.2-2.65,1.3-2.45,2.83-3.6,4.6-3.45,1.84,1.15,3.41,4.98,4.71,11.49Zm-14.36-44.46c-.31,6.28.11,9.57,1.26,9.88.87.22,1.49-1.2,1.86-4.22.83,2.04,1.85,4.51,3.08,7.44.75,1.78,1.41,3.42,1.96,4.94,2,5.44,2.76,9.27,2.29,11.49-.01.05-.03.09-.04.14-.03,0-.05-.02-.08-.03-2.53-.46-4.94,1.03-7.24,4.48-2.22,3.22-3.22,6.32-2.99,9.31,0,.13.03.27.06.41-1.58.9-3.35,1.65-5.27,2.27-.13-2.58-.53-4.63-1.22-6.12-.92-1.91-2.26-3.33-4.02-4.25-1.68-.92-3.48-1.19-5.4-.8-2.07.38-3.75,1.53-5.05,3.45-1.15,1.68-1.8,3.56-1.95,5.63-.05,1.22.15,2.57.6,4.05-2.09-.12-4.15-.37-6.17-.76.02-.1.05-.2.06-.3.23-2.45-.31-4.79-1.61-7.01-1.46-2.53-3.45-4.1-5.97-4.71-1.76-.46-3.64-.15-5.63.92-1.13.63-2.03,1.36-2.71,2.18-.71-2.49-1.03-7.61-.97-15.4.02-1.21.02-2.38,0-3.52-.07-6.18-.6-11.34-1.59-15.49,2.58,2.05,4.11,2.76,4.57,2.12.69-.84-1.07-3.26-5.28-7.24-11.79-11.11-18.84-23.7-21.14-37.8-.75-4.58-.98-9.21-.72-13.89.54-9.64,3.23-19.48,8.07-29.54,2.6-5.36,3.52-8.35,2.76-8.96-.66-.42-1.95.92-3.85,4.03,1.36-16.02-.45-33.97-5.5-53.89,5.74-4.09,11.05-9.09,15.9-15.05,6.51-7.89,11.14-16.2,13.9-24.93,1.84-5.67,2.37-8.69,1.61-9.08-.68-.38-2.06,2.02-4.13,7.18-.04.1-.08.19-.12.29-3.22,8.2-8.04,16.24-14.48,24.13-6.2,7.58-12.33,13.25-18.38,17l-10.8,8.85c-3.13,2.68-5.46,4.27-7,4.79-.57.19-1.04.25-1.39.15-1.53-.46-2.53-4.06-2.99-10.8-.08-1.23-.31-1.88-.69-1.95-.31-.15-1,.11-2.07.8-2.14,1.38-4.37,2.49-6.66,3.33l-4.25.69c-1.07-1.07-.5-4.21,1.72-9.42,1.84-4.29,2.34-6.55,1.49-6.78-.77-.28-2.07,1.27-3.87,4.59-3.17-.01-5.06-.32-5.66-.92-.61-.61,0-1.68,1.84-3.22l5.06-4.6c1.84-2.07,3.03-4.02,3.56-5.86,2.83-10.8,8.04-22.02,15.62-33.66,6.74-10.42,14.55-19.91,23.44-28.49,3.6-3.45,5.05-5.44,4.37-5.97-.61-.46-2.91.84-6.89,3.91-8.1,6.32-15.52,14.59-22.27,24.79-2.11-3.74-4.26-7.18-6.45-10.31-1.89-2.71-3.72-5.05-5.51-7.05-5.03-5.63-9.67-8.46-13.91-8.46-2.43,0-4.83.58-7.21,1.71-1.82.87-3.64,2.04-5.43,3.57-.77.66-1.51,1.37-2.23,2.12,1.34-3.28,2.74-6.59,4.2-9.93.29,0,.61,0,.91,0,2.54-.01,5.43-.19,8.72-.57,8.35-1.07,16.51-3.1,24.47-6.09,4.58-1.7,7.08-3.01,7.53-3.93.08-.16.1-.31.06-.44-.23-1-2.99-.61-8.27,1.15-7.81,2.6-15.39,4.44-22.75,5.51-7.43,1-12.98,1-16.66,0-8.27-2.37-17.73-11.99-28.38-28.84-10.72-16.93-15.47-29.95-14.25-39.06.87-6.86,5.31-14.13,13.33-21.81.3,2.63,1.22,5.42,2.76,8.37,1.91,3.68,3.71,5.36,5.4,5.05,4.75-.84,8.88-9.54,12.41-26.08,3.6-16.62,2.87-25.24-2.18-25.85-1.42-.19-2.96.55-4.6,2.22-.1-1.13.02-2.21.35-3.25.54-1.68,1.68-3.52,3.45-5.51,6.82-7.74,16.08-13.79,27.8-18.15,11.64-4.29,23.05-5.9,34.24-4.83,25.12,2.53,42.28,18,51.47,46.41,3.83,11.72,5.59,24.13,5.28,37.22-.31,12.79-2.49,24.09-6.55,33.89-5.51,13.25-8.62,24.7-9.31,34.35-.69,8.2-.42,12.37.8,12.52.74.09,1.36-1.21,1.86-3.87,6.28,34.5,9.96,53.87,11.01,58.09,4.83,19.91,12.02,37.91,21.6,54,15.39,25.89,21.56,48.83,18.5,68.82-.33,2.15-1.01,5.18-2.01,9.07-1.06,4.12-2.5,9.22-4.31,15.29-2.99,10.19-4.71,18.88-5.17,26.08Zm146.62-25.84c-12.75,12.79-28.46,21.79-47.13,26.98-18.15,5.05-36.38,5.97-54.69,2.76-17.01-2.95-30.04-8.7-39.13-17.23.55-2.28,1.21-4.69,1.97-7.21,7.71,8.22,18.83,14.26,33.36,18.13,15.78,4.29,32.21,5.09,49.29,2.41,18.76-2.91,35.23-9.65,49.4-20.22,2.39-1.77,4.68-3.64,6.88-5.59.03-.03.07-.06.1-.09-.02.02-.04.04-.06.06Zm20.39-29.31c-5.51,9.9-12.38,18.55-20.63,25.94-1.78,1.6-3.63,3.14-5.54,4.62-14.02,10.8-30.37,17.69-49.06,20.68-17,2.76-33.39,2.03-49.17-2.18-14.81-4.03-26.03-10.24-33.68-18.63.99-3.17,1.88-6.07,2.67-8.7,2.15-7.18,3.53-12.37,4.12-15.53.61-3.36.99-6.76,1.14-10.2,8.48,8.82,18.94,15.51,31.37,20.08,14.32,5.28,29.03,6.89,44.12,4.83,16.31-2.22,31.02-8.5,44.12-18.84,14.02-11.14,25.19-26.2,33.52-45.16,3.37,3.69,5.87,5.67,7.53,5.95-1.86,13.69-5.36,26.07-10.52,37.15Zm43.11-94.9v6.43c.15,1.68-.27,4.29-1.26,7.81s-1.38,6.13-1.15,7.81c.31,2.76-.46,5.17-2.3,7.24-1.3,1.46-3.45,3.03-6.43,4.71-1.15.61-2.3,2.45-3.45,5.51-1.15,2.99-2.64,4.9-4.48,5.74-2.45,1.23-4.71,2.95-6.78,5.17-.88.91-1.73,1.6-2.56,2.08-1.19.7-2.33.97-3.42.79-1.68-.23-3.68-1.57-5.97-4.02-2.14-2.45-4.71-4.29-7.7-5.51l-10.8-3.1c-2.76-.61-5.09-2.53-7.01-5.74-1.91-2.99-2.8-6.05-2.64-9.19.08-1.91.46-3.71,1.15-5.4l2.3-4.48,1.95-6.09c.15-1.99-.57-4.17-2.18-6.55-1.61-2.45-2.41-4.52-2.41-6.2,0-2.07,1.11-5.74,3.33-11.03.54-1.53.34-3.75-.57-6.66l-.92-4.14c0-1.53.5-3.26,1.49-5.17l1.38-4.14c.54-2.76.38-5.05-.46-6.89-.92-2.07-1.11-4.52-.57-7.35.54-2.6,1.34-4.4,2.41-5.4-.54,1.61-.31,3.71.69,6.32,1,2.68,1.19,5.17.57,7.47-1.15,4.75-.96,8.23.57,10.45,1.46,2.22,2.37,3.29,2.76,3.22.46-.08.88-1.42,1.26-4.02.16-1.23.42-2.29.76-3.22.15-.41.31-.79.5-1.14l1.95-3.1,2.07-4.48c.38-1.61.42-3.94.11-7.01-.23-3.22.57-6.32,2.41-9.31,2.14-3.45,6.05-7.62,11.72-12.52,1.46-1.23,2.6-2.95,3.45-5.17.84-2.22,1.57-5.44,2.18-9.65,1.23,4.83,1.84,8.81,1.84,11.95s-.61,7.43-1.84,13.33c-1.07,4.98-1.53,8.2-1.38,9.65.15,1.91,1.26,3.33,3.33,4.25,4.9,2.3,6.89,8.2,5.97,17.69-.46,4.44-.46,6.85,0,7.24.54.46,2.68-.88,6.43-4.02,1.38-1.07,2.18-1.38,2.41-.92v3.56l-1.84,13.21c-.23,2.37-.04,3.71.57,4.02.69.31,2.18-.46,4.48-2.3l-.57,6.89-.92,7.12c-.31,3.52-.11,5.28.57,5.28.69.08,1.91-1.61,3.68-5.06l3.56-6.43,2.76-5.4c-.46,1.46-.8,3.41-1.03,5.86Z"/>
      <path class="cls-3" d="m264.42,385.9c24.76-.35,47.82-6.65,69.19-18.87-1.78,1.6-3.63,3.14-5.54,4.62-14.02,10.8-30.37,17.69-49.06,20.68-17,2.76-33.39,2.03-49.17-2.18-14.81-4.03-26.03-10.24-33.68-18.63.99-3.17,1.88-6.07,2.67-8.7,15.68,15.74,37.53,23.45,65.59,23.08ZM21.2,232.3c-2.54.27-5.87,1.82-9.98,4.65.03.06.05.13.1.18.77.69,3.18.34,7.24-1.03,2.3-1,3.6-1.15,3.91-.46.09.31-.02.63-.32.98.93-.69,1.54-1.44,1.82-2.24.46-1.61-.46-2.3-2.76-2.07Zm5.06,17.23c2.21-2.04,4.21-4.27,6-6.69.36-2.25.74-4.52,1.18-6.81-4.15,4.98-8.37,10.74-12.64,17.31,1.2-.16,3.02-1.42,5.47-3.8Zm77.09-85.82c2.68-3.52,3.83-6.17,3.45-7.93l-5.46.1c-.45.92-2.95,2.23-7.53,3.93-7.97,2.99-16.12,5.02-24.47,6.09-3.29.37-6.18.56-8.72.57.78,1.61,1.63,3.03,2.55,4.25,2.38-1.13,4.78-1.71,7.21-1.71,4.24,0,8.88,2.82,13.91,8.46,6.75-1.11,13.1-5.68,19.07-13.74Zm80.54,201.86c-8.43,3.91-18.15,5.02-29.18,3.33-10.95-1.61-19.99-5.36-27.11-11.26-5.09-4.28-8.3-9.03-9.68-14.23-.26,4.68-.03,9.31.72,13.89,2.3,14.09,9.34,26.69,21.14,37.8,4.21,3.98,5.97,6.4,5.28,7.24-.46.64-1.99-.07-4.57-2.12.99,4.15,1.52,9.31,1.59,15.49,4.08-6.05,12.42-9.36,25.04-9.92,13.68-.61,23.1,2.23,28.27,8.5-.56-1.52-1.21-3.17-1.96-4.94-1.23-2.93-2.26-5.4-3.08-7.44-.37,3.03-.99,4.44-1.86,4.22-1.15-.31-1.57-3.6-1.26-9.88.46-7.2,2.18-15.89,5.17-26.08,1.81-6.07,3.25-11.17,4.31-15.29-2.94,4.54-7.21,8.11-12.81,10.69Zm-125.92-8.5c-.54,5.36-3.18,9.54-7.93,12.52-4.67,2.99-9.84,3.94-15.51,2.87-5.19-.96-9.59-3.5-13.22-7.56,0,.07,0,.14,0,.21.38,4.83,2.53,9.65,6.43,14.48,3.75,4.75,8.39,8.43,13.9,11.03,4.75,2.3,6.89,3.83,6.43,4.6-.36.79-2.84.26-7.39-1.55,5.4,3.89,8.98,7.48,10.75,10.77,1.16.8,2.33,2.08,3.53,3.88,1.5,2.14,2.36,4.06,2.63,5.75,8.56-1.02,16.77-3.12,24.6-6.32,7.58-3.14,12.06-6.01,13.44-8.62.69-1.38.61-3.52-.23-6.43-.69-2.36-1.73-4.69-3.11-7.01-.42.76-.8,1.53-1.14,2.3-1.61,3.68-2.8,5.36-3.56,5.05-.77-.31-.61-2.37.46-6.2,1.23-4.14,3.45-8.04,6.66-11.72,1.75-2.14,3.43-3.75,5.06-4.87-17.72-4.51-32.08-11.98-43.07-22.42,1.13,3.15,1.56,6.23,1.25,9.25Zm68.24-122.35l-21.83,19.88c-1.98,2.39-4.81,6.94-8.49,13.64,1.54-.52,3.86-2.11,7-4.79l10.8-8.85c6.05-3.75,12.18-9.42,18.38-17,6.43-7.89,11.26-15.93,14.48-24.13.04-.1.08-.19.12-.29-4.79,6.44-11.6,13.62-20.45,21.54Z"/>
      <path class="cls-4" d="m52.72,410.45c1.09,2.08,1.43,3.74.99,4.98-.38,1.15-3.64,2.37-9.77,3.68l-7.86.86-1.56.17c-.31-.77,1.46-3.06,5.28-6.89,3.98-4.06,6.93-6.17,8.85-6.32,1.38-.08,2.68,1,3.91,3.22.06.1.1.2.16.3Zm-31.64-2.26c.88-.95,1.73-1.8,2.56-2.59l-.93-2.47-.6-1.6c-1-1.53-1.8-2.3-2.41-2.3-2.3-.08-5.4,1.38-9.31,4.37-3.83,2.83-5.59,4.75-5.28,5.74.03.07.09.14.15.21.57.62,2.46.89,5.71.83l8.97-.96c.36-.4.74-.8,1.14-1.22Zm15.51,4.02c.64-.73,1.27-1.42,1.88-2.06-.11-1.08-.34-2.12-.7-3.11-.2-.55-.43-1.09-.71-1.6-1.07-1.76-2.18-2.57-3.33-2.41-2.07.31-5.13,2.37-9.19,6.2-1.13,1.04-2.06,1.95-2.85,2.77-.06.14-.14.23-.27.28-1.79,1.9-2.61,3.15-2.4,3.73.08.24.43.39,1.02.47,1.09.13,3.04-.02,5.87-.47l9.11-1.95c.49-.59,1.01-1.2,1.57-1.85Zm-.11-347.76c1.07.23,2.22-.69,3.45-2.76,1.34-2.3,2.49-5.66,3.47-10.05.24-1.39.44-2.69.59-3.88.16-1.63.23-3.3.19-5.03-.15-3.06-.54-4.63-1.15-4.71-.92-.08-1.99.88-3.22,2.87-1.38,2.22-2.6,5.28-3.68,9.19-1.23,4.52-1.68,8.12-1.38,10.8.23,2.14.8,3.33,1.72,3.56Zm0,67.21l.23-1.95c-.31-.31-1.25-.19-2.83.33.65,1.01,1.33,2.01,2.03,3.01l.56-1.39Zm-15.51-18.61c.46.08,1.19-.27,2.18-1.03l1.03-1.09c-1.87-1.44-3.51-2.76-4.93-3.97.1.53.21,1.1.34,1.72.54,2.83,1,4.29,1.38,4.37Zm85.13-33.2c.29-2.59.68-5.01,1.15-7.28-3.42,9.17-4.54,19.18-3.33,30.03.43.71,1.8,1.18,4.08,1.42-2.42-6.02-3.06-14.08-1.9-24.17Zm-31.48,63.19c-.38.08-.77.88-1.15,2.41l-.22,1.79c1.38-.43,2.8-.9,4.26-1.43-1.35-1.96-2.32-2.9-2.89-2.77Zm126.95,297.67c-1.3-6.51-2.87-10.34-4.71-11.49-1.76-.15-3.29,1-4.6,3.45-.51.88-.91,1.76-1.2,2.65-.44,1.36-.62,2.74-.53,4.13.08,1.76,2.03,4.17,5.86,7.24,2.49,2.07,4.21,3.32,5.2,3.82.44.22.75.3.89.21.61-.54.31-3.87-.92-10Zm-46.87-3.22c-1-1.84-2.34-2.87-4.02-3.1-2.91-.23-4.83.88-5.74,3.33-.92,2.3-1.11,6.05-.57,11.26.38,4.9.96,7.51,1.72,7.81.41.16,1.1-.25,2.04-1.22.81-.83,1.81-2.06,3.01-3.72,2.6-3.68,4.14-6.66,4.6-8.96.29-1.73,0-3.42-.87-5.09-.05-.1-.1-.21-.16-.31Zm20.91-2.53c-1.15-.61-2.34-.8-3.56-.57-1.07.23-2.03.88-2.87,1.95-.12.14-.2.3-.3.45-.77,1.11-1.14,2.34-1.07,3.69.08,3.68,1.57,7.62,4.48,11.83.7,1,1.33,1.85,1.9,2.57,1.56,1.95,2.66,2.83,3.27,2.6.77-.23,1.38-2.83,1.84-7.81.61-5.36.27-9.34-1.03-11.95-.54-1.23-1.42-2.14-2.64-2.76ZM77.38,127.75c.92,1.68,1.57,2.53,1.95,2.53.61.08,1.8-.69,3.56-2.3l2.11-2.52-8.73-.41,1.11,2.7Zm48.94-73.53c-1.84-.31-3.6.69-5.28,2.99-1.91,2.53-3.26,6.09-4.02,10.68-.54,3.75-.42,7.31.34,10.68.92,3.6,2.3,5.63,4.14,6.09,1.61.31,3.29-.61,5.05-2.76,2.14-2.68,3.56-6.59,4.25-11.72.54-4.29.38-7.97-.46-11.03-.92-2.99-2.26-4.63-4.02-4.94Z"/>
    </g>
  </g>
</svg>